<?xml version="1.0" encoding="UTF-8"?>
<svg id="Layer_1" xmlns="http://www.w3.org/2000/svg" version="1.1" xmlns:xlink="http://www.w3.org/1999/xlink" viewBox="0 0 1000 1000">
  <!-- Generator: Adobe Illustrator 29.6.1, SVG Export Plug-In . SVG Version: 2.1.1 Build 9)  -->
  <defs>
    <style>
      .st0 {
        fill: url(#linear-gradient2);
      }

      .st1 {
        fill: url(#linear-gradient10);
      }

      .st2 {
        fill: #d5a253;
      }

      .st3 {
        fill: url(#linear-gradient1);
      }

      .st4 {
        fill: url(#linear-gradient9);
      }

      .st5 {
        fill: url(#linear-gradient8);
      }

      .st6 {
        fill: url(#linear-gradient11);
      }

      .st7 {
        fill: #2a8c83;
      }

      .st8 {
        fill: #5c2c39;
      }

      .st9 {
        fill: url(#linear-gradient12);
      }

      .st10 {
        fill: url(#linear-gradient7);
      }

      .st11 {
        fill: url(#linear-gradient4);
      }

      .st12 {
        fill: url(#linear-gradient5);
      }

      .st13 {
        fill: url(#linear-gradient3);
      }

      .st14 {
        fill: #a67043;
      }

      .st15 {
        fill: url(#linear-gradient6);
      }

      .st16 {
        fill: url(#linear-gradient);
      }
    </style>
    <linearGradient id="linear-gradient" x1="446.65" y1="-258.42" x2="-360.67" y2="-1249.94" gradientTransform="translate(429.12 839) scale(.49)" gradientUnits="userSpaceOnUse">
      <stop offset="0" stop-color="#c44c49"/>
      <stop offset="1" stop-color="#ff8156"/>
    </linearGradient>
    <linearGradient id="linear-gradient1" x1="484.35" y1="-193.12" x2="168.29" y2="-696.32" gradientTransform="translate(429.12 839) scale(.49)" gradientUnits="userSpaceOnUse">
      <stop offset="0" stop-color="#b3793c"/>
      <stop offset="1" stop-color="#fee19f"/>
    </linearGradient>
    <linearGradient id="linear-gradient2" x1="694.32" y1="-497.69" x2="686" y2="-250.92" gradientTransform="translate(429.12 839) scale(.49)" gradientUnits="userSpaceOnUse">
      <stop offset="0" stop-color="#522719"/>
      <stop offset="1" stop-color="#c08048"/>
    </linearGradient>
    <linearGradient id="linear-gradient3" x1="-154.81" y1="-409.5" x2="-255.04" y2="-174.69" gradientTransform="translate(429.12 839) scale(.49)" gradientUnits="userSpaceOnUse">
      <stop offset="0" stop-color="#131e25"/>
      <stop offset="1" stop-color="#1e5359"/>
    </linearGradient>
    <linearGradient id="linear-gradient4" x1="211.72" y1="674.71" x2="563.66" y2="674.71" gradientTransform="translate(39.56 -53.58) rotate(11.82) scale(1.19 .96)" gradientUnits="userSpaceOnUse">
      <stop offset="0" stop-color="#2a8c83"/>
      <stop offset=".75" stop-color="#1a3d44"/>
    </linearGradient>
    <linearGradient id="linear-gradient5" x1="235.59" y1="627.25" x2="235.59" y2="627.25" gradientUnits="userSpaceOnUse">
      <stop offset="0" stop-color="#fff"/>
      <stop offset=".67" stop-color="#1b4349"/>
    </linearGradient>
    <linearGradient id="linear-gradient6" x1="214.77" y1="778.19" x2="214.77" y2="778.19" xlink:href="#linear-gradient5"/>
    <linearGradient id="linear-gradient7" x1="-549.81" y1="-953.47" x2="-277.01" y2="-395.16" gradientTransform="translate(429.12 839) scale(.49)" gradientUnits="userSpaceOnUse">
      <stop offset="0" stop-color="#274854"/>
      <stop offset="1" stop-color="#197e7b"/>
    </linearGradient>
    <linearGradient id="linear-gradient8" x1="-199.81" y1="-587.93" x2="271.66" y2="-487.51" gradientTransform="translate(429.12 839) scale(.49)" gradientUnits="userSpaceOnUse">
      <stop offset="0" stop-color="#182e37"/>
      <stop offset="1" stop-color="#214a51"/>
    </linearGradient>
    <linearGradient id="linear-gradient9" x1="315.13" y1="-972.48" x2="449.97" y2="-822.76" gradientTransform="translate(429.12 839) scale(.49)" gradientUnits="userSpaceOnUse">
      <stop offset="0" stop-color="#512735"/>
      <stop offset="1" stop-color="#a23e48"/>
    </linearGradient>
    <linearGradient id="linear-gradient10" x1="145.18" y1="-1041.65" x2="153.19" y2="-1242.69" gradientTransform="translate(429.12 839) scale(.49)" gradientUnits="userSpaceOnUse">
      <stop offset="0" stop-color="#5c2c39"/>
      <stop offset="1" stop-color="#e56950"/>
    </linearGradient>
    <linearGradient id="linear-gradient11" x1="-387.35" y1="-694.57" x2="-532.54" y2="-870.58" gradientTransform="translate(429.12 839) scale(.49)" gradientUnits="userSpaceOnUse">
      <stop offset="0" stop-color="#1c3942"/>
      <stop offset="1" stop-color="#2a8c83"/>
    </linearGradient>
    <linearGradient id="linear-gradient12" x1="823.32" y1="440.3" x2="766.07" y2="491.05" gradientUnits="userSpaceOnUse">
      <stop offset="0" stop-color="#d5a253"/>
      <stop offset="1" stop-color="#86512f"/>
    </linearGradient>
  </defs>
  <path class="st16" d="M297.7,186.54c8.49,16.45,15.61,32.56,25.51,48.24,29.13,46.12,73.45,85.12,125.72,101.96,94.95,30.6,195.27-24.89,249-102.57,5.7-8.24,10.63-17.09,16.27-25.15-.76,27.17-5.14,55.05-14.76,80.61l-.74,2.58c-.03.28-.07.57-.1.85-3.47,15.82-7.92,30.04-11.17,46.11-12.54,62.05-9.46,126.11,29.51,178.72,30.18,40.73,82.47,65.1,132,71.55,36.7,4.78,68.97.95,104.51-9.57-11.68,12.25-41.29,38.75-57.23,43.99-34.87,19.96-63.23,32.28-102.36,43.29-13.46,3.79-39,8.71-50.57,13.58-41.61,17.96-55.33,35.49-88.36,65.55-33.5,30.47-72.97,55.66-117.92,64.48l-1.87.95c-10.09,4.05-27.25,4.83-37.96,4.77-49.97-.32-98.76-16.2-140.18-43.97-22.07-12.13-56.01-47.85-75.69-64.64-11.37-9.7-22.46-17.08-34.39-25.93-14.14-8.25-32.94-14.56-48.14-20.95-31.89-13.4-71.95-30.6-99.45-51.76-17.63-9.56-41.53-35.12-52.84-51.75,50.84,21.58,107.69,27.92,161.35,12.95,77.38-21.58,115.51-87.69,121.2-164.13,3.17-42.71-4.04-78.51-15.93-119.31-11.63-37.89-16.83-60.46-15.45-100.47l.04.02Z"/>
  <path class="st2" d="M633.31,421.08c.55-1.98,7.76-14.9,9.19-17.48,12.55-22.58,25.22-45.11,36.8-68.22,7.31-14.6,11.49-28.86,19.42-43.16-.03.28-.07.57-.1.85-3.47,15.82-7.92,30.04-11.17,46.11-12.54,62.05-9.46,126.11,29.51,178.72,30.18,40.73,82.47,65.1,132,71.55,36.7,4.78,68.97.95,104.51-9.57-11.68,12.25-41.29,38.75-57.23,43.99-34.87,19.96-63.23,32.28-102.36,43.29-13.46,3.79-39,8.71-50.57,13.58-41.61,17.96-55.33,35.49-88.36,65.55-33.5,30.47-72.97,55.66-117.92,64.48,1.27-1.3,1.91-1.66,3.42-2.72,5.2-4.9,8.41-8.1,12.58-13.85,1.58-1.6,3.28-3.98,4.69-5.83,3.65-1.59,11.2-13.1,13.91-16.93,30.21-53.17,45.17-113.63,43.25-174.75-.84-34.29-4.42-65.1-4.27-100.29.85-29.64,9.43-49.67,22.69-75.33h0Z"/>
  <path class="st3" d="M633.31,421.08l1.54.55c1.12,3.72,2.43,15.8,3.03,20.34l5.31,39.16c2.31,16.54,4.78,33.07,7.38,49.56,2.16,13.5,5.11,30.63,6.13,44.03.57,7.85.75,15.73.54,23.59-.07,3.5-.71,15.99-.25,18.36-7.17,19.04-1.9,25.15-3.32,43.97-1.16,15.22-9.99,39.24-16.2,53.66l1.11-.46c6.93-2.94,18.78-10.15,25.2-14.22,28.79-18.29,43.69-23.08,77.24-20.36l2.31,1.49c-41.61,17.96-55.33,35.49-88.36,65.55-33.5,30.47-72.97,55.66-117.92,64.48,1.27-1.3,1.91-1.66,3.42-2.72,5.2-4.9,8.41-8.1,12.58-13.85,1.58-1.6,3.28-3.98,4.69-5.83,3.65-1.59,11.2-13.1,13.91-16.93,30.21-53.17,45.17-113.63,43.25-174.75-.84-34.29-4.42-65.1-4.27-100.29.85-29.64,9.43-49.67,22.69-75.33h0Z"/>
  <path class="st14" d="M571.64,771.45c-1.57,4.99-6.34,12.7-10.42,15.92-7.67,6.07-3.93,9.46-5.89,13.11-1.97.74-3.31.12-5.42.08-2.96,3.23-5.53,7.27-9.46,7.49,5.2-4.9,8.41-8.1,12.58-13.85,1.58-1.6,3.28-3.98,4.69-5.83,3.65-1.59,11.2-13.1,13.91-16.93h.01Z"/>
  <path class="st0" d="M656.98,616.67c14.77-24.93,42.28-31.35,67.97-17.23,8.22,4.51,11.99,14.27,20.1,18.82,5.11,2.92,14.79,6.44,20.4,8.3,32.73,11.1,67.85,13.25,101.68,6.19,6.64-1.42,26.92-8.83,29.11-8.87-34.87,19.96-63.23,32.28-102.36,43.29-13.46,3.79-39,8.71-50.57,13.58l-2.31-1.49c-33.55-2.72-48.46,2.07-77.24,20.36-6.42,4.08-18.26,11.28-25.2,14.22l-1.11.46c6.22-14.42,15.05-38.43,16.2-53.66,1.42-18.82-3.85-24.93,3.32-43.97h.01Z"/>
  <path class="st13" d="M99.37,609.24c4.19-.46,18.48,5.88,24.37,7.79,14.46,4.55,29.32,7.72,44.37,9.48,50,5.87,100.3.24,149.94-5.95,12.54-1.56,31.34-2.36,42.78-4.3,59.05-.4,107.86,10.93,150.45,54.63,24.64,25.28,41.66,50.89,43.54,87.3.06,1.15-.07,1.85-.21,2.97.23,3.86.21,5.46,1.76,9.04-.12,7.67-1.96,16.39-3.32,24.01-4.17,5.75-7.38,8.95-12.58,13.85-1.51,1.05-2.15,1.42-3.42,2.72l-1.87.95c-10.09,4.05-27.25,4.83-37.96,4.77-49.97-.32-98.76-16.2-140.18-43.97-22.07-12.13-56.01-47.85-75.69-64.64-11.37-9.7-22.46-17.08-34.39-25.93-14.14-8.25-32.94-14.56-48.14-20.95-31.89-13.4-71.95-30.6-99.45-51.76h0Z"/>
  <path class="st11" d="M492.64,786.12c-57.68-30.4-100.07-92.26-138.05-168.56-11.12-22.32-20.04-45.6-28.27-69.54-6.58,19.45-18.42,35.73-31.04,50.74-15.5,18.44-33.43,36.78-37.77,63.67-.98,6.04-4.6,8.86-8.3,9.03,57.53,74.01,126.07,122.49,202.46,139.5,24.54,5.42,64.71,10.1,91.76-3.57-6.48-9.95-40.14-15.66-50.79-21.27Z"/>
  <path class="st7" d="M99.37,609.24c4.19-.46,18.48,5.88,24.37,7.79,14.46,4.55,29.32,7.72,44.37,9.48,50,5.87,100.3.24,149.94-5.95,12.54-1.56,31.34-2.36,42.78-4.3,59.05-.4,107.86,10.93,150.45,54.63,24.64,25.28,41.66,50.89,43.54,87.3.06,1.15-.07,1.85-.21,2.97-.05-9.45-3.69-14.89-8.6-22.13-52.41-77.1-142.75-40.49-218.4-41.94-18.59-.35-39.15-3.21-57.41-7.96-6.66-1.74-16.81-6.28-23.23-7.18-14.14-8.25-32.94-14.56-48.14-20.95-31.89-13.4-71.95-30.6-99.45-51.76h0Z"/>
  <path class="st12" d="M235.59,627.25"/>
  <path class="st15" d="M214.77,778.19"/>
  <path class="st10" d="M313.15,287.01c3.97,4.85,11.64,18.01,15.39,24.06,12.35,19.92,25.01,40.07,35.26,61.16,1.6,3.29,6.4,12.7,7.42,15.89-1.29,1.57-1.9,2.54-1.3,4.76,12.05,44.81,9.13,95.73-15.13,136.04-3.87,6.44-12.4,11.93-17.66,17.15-17.81,18.18-12.34,48.02,8.44,61.39,5.06,3.26,10.72,5.81,15.27,8.8-11.44,1.94-30.24,2.74-42.78,4.3-49.63,6.19-99.94,11.82-149.94,5.95-15.06-1.76-29.91-4.93-44.37-9.48-5.89-1.91-20.18-8.25-24.37-7.79-17.63-9.56-41.53-35.12-52.84-51.75,50.84,21.58,107.69,27.92,161.35,12.95,77.38-21.58,115.51-87.69,121.2-164.13,3.17-42.71-4.04-78.51-15.93-119.31h-.01Z"/>
  <path class="st5" d="M371.21,388.11c6.05,12.9,11.14,25.38,16.53,38.5,2.47,6.01,7.23,18.34,10.39,23.8-.21,5.09,5.11,23.55,7.24,30.6,8.81,29.15,14.12,74.12,33.55,97.89,10.24,12.53,31.24,24,42.43,36.93,29.63,28.87,53.57,62.41,66.02,102.18,5.08,16.22,9.9,31.12,9.25,48.64-.04,1.18-.12,2.37-.25,3.55-1.55-3.58-1.53-5.18-1.76-9.04.15-1.13.27-1.82.21-2.97-1.88-36.41-18.9-62.02-43.54-87.3-42.59-43.69-91.4-55.03-150.45-54.63-4.55-2.99-10.21-5.54-15.27-8.8-20.78-13.37-26.25-43.21-8.44-61.39,5.26-5.22,13.79-10.72,17.66-17.15,24.25-40.31,27.18-91.24,15.13-136.04-.6-2.22,0-3.19,1.3-4.76h0Z"/>
  <path class="st8" d="M398.13,450.42c14.68,23.27,29.22,44.4,48.54,64.2,21.87,22.42,45.72,42.53,68.28,64.21,50.21,49.11,72.94,101.41,56.95,171.94-3.38,14.86-7.04,23.92-14.17,37.62-1.41,1.85-3.11,4.22-4.69,5.83,1.35-7.62,3.2-16.34,3.32-24.01.13-1.18.21-2.36.25-3.55.65-17.52-4.17-32.42-9.25-48.64-12.45-39.77-36.39-73.31-66.02-102.18-11.19-12.93-32.19-24.4-42.43-36.93-19.43-23.77-24.74-68.74-33.55-97.89-2.13-7.05-7.45-25.51-7.24-30.6h0Z"/>
  <path class="st4" d="M610.62,496.41c-1.64,2.25-.1,19.01-1.01,23.46-1.94-21.49.34-43.16,6.7-63.78,2.45-7.49,5.37-14.83,8.73-21.96,1.86-3.97,16.19-30.5,16.12-31.69l-.53.25-.88.43c-14.37,6.98-54.76,43.7-65.28,57.52-11.04,14.5-11.27,25.43-11.2,42.63.01,3.78-2.38,10.6-.74,14.15,6.83,14.68,21.94,34.2,24.36,50.36-.52-.66-7.84-17.58-9.2-20.34-5.84-11.74-12.38-23.12-19.6-34.07-11.18-16.78-28.09-29.96-36.83-43.24-6.85-10.43-9.21-23.18-6.53-35.37,6.23-27.33,31.3-38.62,57.13-38.56,17.61,1.24,27.06-8.59,40.37-15.21,31.01-15.43,51.8-37.5,71.25-65.53,2.58-3.71,13.81-24.48,15.98-25.83l-.74,2.58c-7.93,14.31-12.1,28.57-19.42,43.16-11.57,23.1-24.25,45.64-36.8,68.22-1.43,2.59-8.64,15.5-9.19,17.48-13.26,25.66-21.84,45.69-22.69,75.33h0Z"/>
  <path class="st1" d="M433.49,232.83c10.71-30.49,40.01-50.46,72.3-49.28,32.29,1.18,60.06,23.24,68.52,54.42,8.3,30.62-3.91,63.12-30.32,80.71-26.41,17.59-61.1,16.32-86.16-3.15-25.05-19.47-34.86-52.77-24.34-82.71h0Z"/>
  <path class="st6" d="M160.36,517.64c-18.65-21.23-23.38-51.32-12.14-77.25s36.44-43.04,64.68-43.94c28.25-.89,54.47,14.59,67.34,39.75,16.76,32.8,6.48,72.95-23.99,93.64-30.47,20.7-71.58,15.46-95.89-12.21h0Z"/>
  <path class="st9" d="M745.12,412.43c23.64-18.46,56.17-20.56,81.98-5.28s39.63,44.81,34.81,74.41c-4.91,30.16-28.09,54.05-58.1,59.85-31.97,6.18-64.16-9.59-78.86-38.64-15.73-31.07-7.28-68.91,20.16-90.34h.01Z"/>
</svg>